<?xml version="1.0" encoding="UTF-8"?>
<!DOCTYPE svg PUBLIC "-//W3C//DTD SVG 1.1//EN" "http://www.w3.org/Graphics/SVG/1.1/DTD/svg11.dtd">
<svg xmlns="http://www.w3.org/2000/svg" version="1.1" width="225px" height="225px" style="shape-rendering:geometricPrecision; text-rendering:geometricPrecision; image-rendering:optimizeQuality; fill-rule:evenodd; clip-rule:evenodd" xmlns:xlink="http://www.w3.org/1999/xlink">
<g><path style="opacity:1" fill="#fdfefe" d="M -0.5,-0.5 C 32.8333,-0.5 66.1667,-0.5 99.5,-0.5C 50.4493,8.04764 18.2827,36.0476 3,83.5C 1.59684,89.9334 0.430176,96.2667 -0.5,102.5C -0.5,68.1667 -0.5,33.8333 -0.5,-0.5 Z"/></g>
<g><path style="opacity:1" fill="#0dc18e" d="M 99.5,-0.5 C 105.833,-0.5 112.167,-0.5 118.5,-0.5C 165.524,4.09448 198.357,28.0945 217,71.5C 220.308,80.4134 222.808,89.4134 224.5,98.5C 224.5,105.167 224.5,111.833 224.5,118.5C 218.613,171.225 190.28,205.391 139.5,221C 132.392,222.407 125.392,223.574 118.5,224.5C 112.167,224.5 105.833,224.5 99.5,224.5C 51.6185,216.454 19.7851,189.454 4,143.5C 2.04661,135.102 0.54661,126.769 -0.5,118.5C -0.5,113.167 -0.5,107.833 -0.5,102.5C 0.430176,96.2667 1.59684,89.9334 3,83.5C 18.2827,36.0476 50.4493,8.04764 99.5,-0.5 Z"/></g>
<g><path style="opacity:1" fill="#fdfefe" d="M 118.5,-0.5 C 153.833,-0.5 189.167,-0.5 224.5,-0.5C 224.5,32.5 224.5,65.5 224.5,98.5C 222.808,89.4134 220.308,80.4134 217,71.5C 198.357,28.0945 165.524,4.09448 118.5,-0.5 Z"/></g>
<g><path style="opacity:1" fill="#fcfefd" d="M 104.5,41.5 C 106.124,41.3601 107.29,42.0267 108,43.5C 109.667,49.5 111.333,55.5 113,61.5C 124.019,58.6902 134.019,60.6902 143,67.5C 150.457,77.4665 150.291,87.2998 142.5,97C 163.505,103.837 169.671,117.337 161,137.5C 154.493,145.167 146.327,149.834 136.5,151.5C 137.537,158.316 139.204,164.982 141.5,171.5C 137.442,173.6 133.109,174.933 128.5,175.5C 127.485,168.771 126.151,162.105 124.5,155.5C 120.854,155.577 117.521,156.577 114.5,158.5C 116.324,164.795 117.99,171.128 119.5,177.5C 115.605,179.483 111.605,180.149 107.5,179.5C 106.001,174.172 104.501,168.839 103,163.5C 102.326,162.422 101.326,161.755 100,161.5C 92.6996,163.07 85.5329,165.07 78.5,167.5C 77.7823,162.818 77.1157,158.151 76.5,153.5C 76.7093,152.914 77.0426,152.414 77.5,152C 80.9364,151.308 84.2698,150.308 87.5,149C 88.1159,147.6 88.4493,146.1 88.5,144.5C 84.3173,126.436 79.8173,108.436 75,90.5C 73.4376,88.0896 71.271,86.7562 68.5,86.5C 64.9723,86.8815 61.639,87.8815 58.5,89.5C 57.1676,85.5057 55.8343,81.5057 54.5,77.5C 54.7093,76.914 55.0426,76.414 55.5,76C 63.1382,73.973 70.8049,72.1397 78.5,70.5C 77.5347,63.8051 75.868,57.3051 73.5,51C 77.5051,48.7481 81.8385,47.5814 86.5,47.5C 87.5162,53.5655 88.8496,59.5655 90.5,65.5C 93.957,66.1424 97.2904,65.4757 100.5,63.5C 98.8333,57.5 97.1667,51.5 95.5,45.5C 98.5035,44.0109 101.504,42.6776 104.5,41.5 Z"/></g>
<g><path style="opacity:1" fill="#14c18e" d="M 109.5,76.5 C 120.739,75.5816 126.239,80.5816 126,91.5C 123.342,97.2587 118.842,100.759 112.5,102C 108.527,103.028 104.527,103.861 100.5,104.5C 99.2014,96.4721 97.2014,88.6388 94.5,81C 99.4818,79.0104 104.482,77.5104 109.5,76.5 Z"/></g>
<g><path style="opacity:1" fill="#13c18e" d="M 120.5,112.5 C 126.965,111.697 132.965,112.864 138.5,116C 143.046,123.729 141.712,130.395 134.5,136C 126.884,139.737 118.884,142.237 110.5,143.5C 108.344,134.54 106.344,125.54 104.5,116.5C 109.943,115.139 115.276,113.806 120.5,112.5 Z"/></g>
<g><path style="opacity:1" fill="#fdfefe" d="M -0.5,118.5 C 0.54661,126.769 2.04661,135.102 4,143.5C 19.7851,189.454 51.6185,216.454 99.5,224.5C 66.1667,224.5 32.8333,224.5 -0.5,224.5C -0.5,189.167 -0.5,153.833 -0.5,118.5 Z"/></g>
<g><path style="opacity:1" fill="#fdfefe" d="M 224.5,118.5 C 224.5,153.833 224.5,189.167 224.5,224.5C 189.167,224.5 153.833,224.5 118.5,224.5C 125.392,223.574 132.392,222.407 139.5,221C 190.28,205.391 218.613,171.225 224.5,118.5 Z"/></g>
</svg>
