<svg width="114" height="31" viewBox="0 0 114 31" fill="none" xmlns="http://www.w3.org/2000/svg">
<path fill-rule="evenodd" clip-rule="evenodd" d="M2.44217 3.94504C1.6545 3.94988 1.19291 4.82168 1.63092 5.47634C1.77066 5.68521 1.92021 5.90801 2.07635 6.1396C2.38538 6.59789 2.78454 7.18825 2.96339 7.45153C3.26762 7.89925 3.8686 8.78672 6.9673 13.3642C7.30808 13.8676 7.61766 14.3338 7.84101 14.6725C8.05875 15.0028 8.05872 15.4293 7.84179 15.7601C7.43847 16.3751 6.73219 17.4483 5.9326 18.647C3.56113 22.202 1.94455 24.6357 1.00512 26.0525C0.56886 26.7105 1.03362 27.5842 1.82308 27.5884C2.16183 27.5903 2.53184 27.5915 2.91882 27.5915H5.29228C5.63222 27.5915 5.94888 27.4188 6.13296 27.133L7.93138 24.3411C10.8329 19.8366 11.3593 19.0115 12.6095 17.0076C12.9437 16.472 13.2046 16.0331 13.3849 15.7229C13.5681 15.4074 13.5547 15.0183 13.3577 14.7113C13.1466 14.3822 12.8507 13.9214 12.5319 13.4261C11.9169 12.4706 11.1588 11.2739 10.847 10.7668C10.5353 10.2598 10.1573 9.64547 10.0069 9.4017C9.61522 8.76659 7.76495 5.75314 6.9461 4.41788C6.76413 4.12116 6.44173 3.94122 6.09366 3.94122H3.65227C3.22384 3.94122 2.81409 3.94276 2.44217 3.94504Z" fill="#202128"/>
<path fill-rule="evenodd" clip-rule="evenodd" d="M13.6679 18.3618C13.1494 19.1507 12.824 19.6458 12.6197 19.9566C12.409 20.2771 12.4 20.689 12.5961 21.0186C13.0611 21.8002 14.0383 23.4468 15.571 26.049C15.711 26.2866 15.8748 26.6095 16.0151 26.8985C16.2125 27.3048 16.6527 27.5891 17.1044 27.589C17.539 27.5889 18.2206 27.5894 19.2897 27.5914C19.7016 27.5914 20.1005 27.5914 20.4647 27.5914C21.2418 27.5914 21.7197 26.7463 21.3138 26.0836C20.7089 25.0958 19.8569 23.7189 18.9212 22.2495C17.8053 20.4971 16.6701 18.7215 15.9313 17.5653C15.5436 16.9586 14.6538 16.9416 14.2432 17.5331C14.0829 17.7641 13.8929 18.0377 13.6679 18.3618Z" fill="#3772FF"/>
<path fill-rule="evenodd" clip-rule="evenodd" d="M14.7329 5.18224C14.2854 5.8648 13.4845 7.08543 12.9529 7.89475C12.6908 8.29391 12.448 8.66791 12.2693 8.94448C12.0823 9.23385 12.0808 9.58732 12.2636 9.87936L13.6071 12.0256C13.8076 12.3367 14.0003 12.6315 14.175 12.8966C14.5662 13.4904 15.4313 13.4838 15.8179 12.887C15.9529 12.6787 16.0981 12.4539 16.2481 12.2206C16.9188 11.1772 17.6123 10.1002 17.7892 9.82719C17.9661 9.55416 18.7014 8.41332 19.4232 7.29197C20.1451 6.17062 20.925 4.96357 21.1564 4.60963C21.3429 4.32433 21.1388 3.95011 20.798 3.94807C20.2451 3.94476 19.4463 3.94122 18.5617 3.94122H16.0866C15.7495 3.94122 15.4351 4.11106 15.2503 4.39298L14.7329 5.18224Z" fill="#3772FF"/>
<path d="M28.5895 23.9326C28.0828 23.9326 27.6295 23.7593 27.2295 23.4126C26.8295 23.0393 26.6295 22.6126 26.6295 22.1326C26.6295 21.7593 26.7362 21.426 26.9495 21.1326L30.8695 16.2126C31.0562 15.9993 31.1495 15.7326 31.1495 15.4126C31.1495 15.1193 31.0428 14.826 30.8295 14.5326L27.1095 9.97262C26.9228 9.67929 26.8295 9.34596 26.8295 8.97262C26.8295 8.49262 27.0162 8.06596 27.3895 7.69262C27.7628 7.31929 28.2028 7.13262 28.7095 7.13262C29.2428 7.13262 29.6562 7.34596 29.9495 7.77262L32.9895 12.0126C33.2028 12.2526 33.3895 12.3726 33.5495 12.3726C33.7628 12.3726 33.9495 12.2526 34.1095 12.0126L37.1095 7.77262C37.4028 7.34596 37.8162 7.13262 38.3495 7.13262C38.8562 7.13262 39.2962 7.31929 39.6695 7.69262C40.0428 8.06596 40.2295 8.49262 40.2295 8.97262C40.2295 9.34596 40.1362 9.67929 39.9495 9.97262L36.2295 14.5326C36.0162 14.826 35.9095 15.1193 35.9095 15.4126C35.9095 15.7326 36.0028 15.9993 36.1895 16.2126L40.1095 21.1326C40.3228 21.426 40.4295 21.7593 40.4295 22.1326C40.4295 22.6126 40.2295 23.0393 39.8295 23.4126C39.4562 23.7593 39.0028 23.9326 38.4695 23.9326C37.9362 23.9326 37.5228 23.7193 37.2295 23.2926L34.1095 18.8926C33.9228 18.6526 33.7362 18.5326 33.5495 18.5326C33.3362 18.5326 33.1495 18.6526 32.9895 18.8926L29.8295 23.2926C29.5362 23.7193 29.1228 23.9326 28.5895 23.9326ZM47.1776 23.9326C46.031 23.9326 44.9776 23.666 44.0176 23.1326C43.0576 22.5993 42.2843 21.866 41.6976 20.9326C41.1376 19.9726 40.8576 18.8926 40.8576 17.6926C40.8576 16.466 41.1376 15.3993 41.6976 14.4926C42.2843 13.5593 43.0576 12.8393 44.0176 12.3326C44.9776 11.7993 46.031 11.5326 47.1776 11.5326C48.351 11.5326 49.4043 11.7993 50.3376 12.3326C51.2976 12.8393 52.0576 13.5593 52.6176 14.4926C53.1776 15.3993 53.4576 16.466 53.4576 17.6926C53.4576 18.8926 53.1776 19.9726 52.6176 20.9326C52.0576 21.866 51.2976 22.5993 50.3376 23.1326C49.4043 23.666 48.351 23.9326 47.1776 23.9326ZM47.1776 20.6926C48.0043 20.6926 48.671 20.4126 49.1776 19.8526C49.711 19.266 49.9776 18.546 49.9776 17.6926C49.9776 16.8126 49.711 16.106 49.1776 15.5726C48.671 15.0393 48.0043 14.7726 47.1776 14.7726C46.3776 14.7726 45.6976 15.0393 45.1376 15.5726C44.6043 16.106 44.3376 16.8126 44.3376 17.6926C44.3376 18.546 44.6043 19.266 45.1376 19.8526C45.6976 20.4126 46.3776 20.6926 47.1776 20.6926ZM65.9164 23.9326C65.4097 23.9326 64.983 23.786 64.6364 23.4926C64.3164 23.1993 64.1564 22.826 64.1564 22.3726V17.4926C64.1564 16.506 63.9297 15.7993 63.4764 15.3726C63.0497 14.946 62.5164 14.7326 61.8764 14.7326C61.2097 14.7326 60.6497 14.946 60.1964 15.3726C59.7697 15.7993 59.503 16.2926 59.3964 16.8526V22.2126C59.3964 22.666 59.223 23.0526 58.8764 23.3726C58.5564 23.666 58.1564 23.8126 57.6764 23.8126C57.1697 23.8126 56.743 23.666 56.3964 23.3726C56.0497 23.0793 55.8764 22.706 55.8764 22.2526V13.2926C55.8764 12.866 56.0364 12.506 56.3564 12.2126C56.703 11.8926 57.143 11.7326 57.6764 11.7326C58.103 11.7326 58.463 11.8526 58.7564 12.0926C59.0497 12.306 59.2497 12.586 59.3564 12.9326C60.0764 11.9993 61.1697 11.5326 62.6364 11.5326C64.1297 11.5326 65.343 11.9726 66.2764 12.8526C67.2097 13.7326 67.6764 15.1326 67.6764 17.0526V22.4526C67.6764 22.8793 67.503 23.2393 67.1564 23.5326C66.8364 23.7993 66.423 23.9326 65.9164 23.9326Z" fill="#202128"/>
<path d="M73.4811 23.5326C72.7344 23.5326 72.1077 23.2926 71.6011 22.8126C71.1211 22.306 70.8811 21.6793 70.8811 20.9326V9.81262C70.8811 9.11929 71.1211 8.53262 71.6011 8.05262C72.0811 7.57262 72.6677 7.33262 73.3611 7.33262H77.2011C78.6944 7.33262 79.8944 7.74596 80.8011 8.57262C81.7077 9.37262 82.1611 10.3593 82.1611 11.5326C82.1611 12.786 81.7477 13.786 80.9211 14.5326C82.3611 15.2793 83.0811 16.5593 83.0811 18.3726C83.0811 19.8926 82.5877 21.1326 81.6011 22.0926C80.6144 23.0526 79.2944 23.5326 77.6411 23.5326H73.4811ZM75.0011 20.3326H77.8011C78.3344 20.3326 78.7744 20.1726 79.1211 19.8526C79.4944 19.5326 79.6811 19.066 79.6811 18.4526C79.6811 17.8393 79.5077 17.3726 79.1611 17.0526C78.8144 16.7326 78.3611 16.5726 77.8011 16.5726H75.0011C74.6011 16.5726 74.4011 16.7726 74.4011 17.1726V19.7326C74.4011 20.1326 74.6011 20.3326 75.0011 20.3326ZM75.0011 13.5326H77.2011C77.6811 13.5326 78.0544 13.3726 78.3211 13.0526C78.5877 12.7326 78.7211 12.386 78.7211 12.0126C78.7211 11.6393 78.5877 11.306 78.3211 11.0126C78.0544 10.6926 77.6811 10.5326 77.2011 10.5326H75.0011C74.6011 10.5326 74.4011 10.7326 74.4011 11.1326V12.9326C74.4011 13.3326 74.6011 13.5326 75.0011 13.5326ZM87.5211 23.9326C87.0144 23.9326 86.5877 23.786 86.2411 23.4926C85.8944 23.1993 85.7211 22.826 85.7211 22.3726V13.2926C85.7211 12.866 85.8811 12.506 86.2011 12.2126C86.5477 11.8926 86.9877 11.7326 87.5211 11.7326C88.0544 11.7326 88.4677 11.8926 88.7611 12.2126C89.0811 12.506 89.2411 12.8793 89.2411 13.3326V22.3326C89.2411 22.786 89.0677 23.1726 88.7211 23.4926C88.4011 23.786 88.0011 23.9326 87.5211 23.9326ZM87.5211 9.73262C86.9611 9.73262 86.4811 9.55929 86.0811 9.21262C85.6811 8.83929 85.4811 8.37262 85.4811 7.81262C85.4811 7.30596 85.6811 6.86596 86.0811 6.49262C86.4811 6.11929 86.9611 5.93262 87.5211 5.93262C88.0544 5.93262 88.5077 6.11929 88.8811 6.49262C89.2811 6.86596 89.4811 7.30596 89.4811 7.81262C89.4811 8.37262 89.2811 8.83929 88.8811 9.21262C88.5077 9.55929 88.0544 9.73262 87.5211 9.73262ZM97.8779 23.9326C97.3713 23.9326 96.9446 23.786 96.5979 23.4926C96.2513 23.1726 96.0779 22.7593 96.0779 22.2526V11.8126C96.0779 11.0126 95.6779 10.6126 94.8779 10.6126H92.9179C92.4379 10.6126 92.0379 10.466 91.7179 10.1726C91.4246 9.85262 91.2779 9.45262 91.2779 8.97262C91.2779 8.49262 91.4246 8.10596 91.7179 7.81262C92.0379 7.49262 92.4379 7.33262 92.9179 7.33262H102.798C103.305 7.33262 103.705 7.49262 103.998 7.81262C104.318 8.10596 104.478 8.49262 104.478 8.97262C104.478 9.45262 104.318 9.85262 103.998 10.1726C103.705 10.466 103.305 10.6126 102.798 10.6126H100.878C100.078 10.6126 99.6779 11.0126 99.6779 11.8126V22.2526C99.6779 22.7593 99.5046 23.1726 99.1579 23.4926C98.8379 23.786 98.4113 23.9326 97.8779 23.9326Z" fill="#366FF8"/>
</svg>
